# xmcd
#
# Track frame offsets: 
#        150
#        13230
#        27050
#        40130
#        52973
#        65944
#        78555
#        90953
#        105452
#        118962
#        132540
#        145665
#        159487
#        173290
#        186917
#        200113
#        212790
#        225049
#        238493
#        251690
#        265807
#        279666
#        293223
#        307501
#        320836
#        333234
#
# Disc length: 4621 seconds
#
# Revision: 3
# Processed by: cddbd v1.5.2PL0 Copyright (c) Steve Scherf et al.
# Submitted via: ExactAudioCopyFreeDBPlugin 1.0
#
DISCID=76120b1a
DTITLE=Big Bill Broonzy - All The Sides [JSP Records]
DYEAR=2005
DGENRE=Blues
TTITLE0=You Do Me Any Old Way (take 1)
TTITLE1=You Do Me Any Old Way (take 2)
TTITLE2=Down in the Alley (take 1)
TTITLE3=Down in the Alley (take 2)
TTITLE4=Stuff They Call Money
TTITLE5=Louise, Louise Blues (take 1)
TTITLE6=Louise, Louise Blues (take 2)
TTITLE7=Let Me Be Your Winder
TTITLE8=Hattie Blues (take 1)
TTITLE9=Hattie Blues (take 2)
TTITLE10=My Old Lizzie
TTITLE11=Come Home Early (take 1)
TTITLE12=Come Home Early (take 2)
TTITLE13=Come Home Early (take 3)
TTITLE14=Come Home Early (take 4)
TTITLE15=My Gal is Gone
TTITLE16=Evil Hearted Me
TTITLE17=I Want My Hands on It (take 1)
TTITLE18=I Want My Hands on It (take 2)
TTITLE19=It's Too Late Now (take 1)
TTITLE20=It's Too Late Now (take 2)
TTITLE21=Make a Date with an Angel (Got No Walking Shoes) (take 1)
TTITLE22=Make a Date with an Angel (Got No Walking Shoes) (take 2)
TTITLE23=Play Your Hand
TTITLE24=Hattie Blues (take 3)
TTITLE25=Somebody's Got to Go
EXTD=
EXTT0=
EXTT1=
EXTT2=
EXTT3=
EXTT4=
EXTT5=
EXTT6=
EXTT7=
EXTT8=
EXTT9=
EXTT10=
EXTT11=
EXTT12=
EXTT13=
EXTT14=
EXTT15=
EXTT16=
EXTT17=
EXTT18=
EXTT19=
EXTT20=
EXTT21=
EXTT22=
EXTT23=
EXTT24=
EXTT25=
PLAYORDER=
